<svg width="282" height="42" viewBox="0 0 282 42" fill="none" xmlns="http://www.w3.org/2000/svg">
<path d="M10.3252 36.4546C9.2766 36.6775 8.29354 36.4775 7.37599 35.8547C6.45844 35.2318 5.88324 34.3726 5.65038 33.2771L0.0966422 7.14884C-0.132892 6.06897 0.046448 5.06576 0.634663 4.13921C1.22288 3.21267 2.03345 2.63962 3.06637 2.42007L12.7383 0.364236C16.3222 -0.397553 19.4404 0.0356025 22.0929 1.6637C24.7454 3.2918 26.4591 5.92912 27.2342 9.57565C27.9993 13.1752 27.4478 16.2368 25.5797 18.7604C23.7272 21.2806 21.0716 22.9083 17.6128 23.6435L8.50433 25.5795L7.14209 19.1707L15.5933 17.3744C17.1114 17.0517 18.2373 16.3462 18.971 15.2578C19.7205 14.1662 19.9305 12.8456 19.6012 11.2963C19.2718 9.74687 18.5412 8.61811 17.4092 7.90999C16.2896 7.18289 14.9785 6.97901 13.4761 7.29836L8.40539 8.37618L13.3504 31.6404C13.5832 32.736 13.3994 33.7565 12.7988 34.702C12.214 35.6442 11.3894 36.2284 10.3252 36.4546Z" fill="white"/>
<path d="M26.8976 38.5418C25.5477 38.3761 24.5709 37.7322 23.9672 36.6103C23.3653 35.4725 23.4322 34.2717 24.1677 33.0079L38.3624 7.59637C38.8981 6.64658 39.5872 5.95743 40.4297 5.52891C41.2742 5.08451 42.1967 4.92373 43.1971 5.04657C44.2453 5.17527 45.1253 5.55736 45.8371 6.19285C46.5509 6.81246 47.0529 7.64786 47.3429 8.69904L54.8639 36.656C55.2818 38.1098 55.0602 39.3238 54.1991 40.2981C53.3399 41.2566 52.2194 41.651 50.8378 41.4813C50.012 41.3799 49.2651 41.0303 48.5969 40.4324C47.9447 39.8365 47.5285 39.1567 47.3482 38.393L42.7035 18.9138L41.957 15.1467L41.8141 15.1292L40.1814 18.5799L30.8907 36.3481C30.5191 37.0118 29.9587 37.5716 29.2095 38.0277C28.4781 38.4699 27.7075 38.6413 26.8976 38.5418ZM29.1391 31.7081L31.8367 26.4778L48.44 28.5165L49.8635 34.2527L29.1391 31.7081Z" fill="white"/>
<path d="M62.0174 36.5218C60.8479 36.3366 59.9108 35.7589 59.2059 34.7887C58.501 33.8185 58.2411 32.7486 58.4263 31.5792L62.575 5.38573C62.7427 4.32693 63.2671 3.47042 64.1483 2.81622C65.0453 2.16452 66.0232 1.92251 67.082 2.09021C68.1408 2.25791 68.9882 2.789 69.6241 3.68349C70.2758 4.58048 70.5178 5.55838 70.3501 6.61718L66.6632 29.895L77.8518 31.6671C78.8632 31.8273 79.6602 32.318 80.2429 33.1393C80.8414 33.9631 81.0631 34.8648 80.9079 35.8446C80.7552 36.8086 80.267 37.5899 79.4432 38.1884C78.6352 38.7894 77.7256 39.0098 76.7142 38.8496L62.0174 36.5218Z" fill="white"/>
<path d="M89.8863 40.7143C88.5612 41.0203 87.423 40.7494 86.472 39.9016C85.5173 39.0382 85.1694 37.887 85.4283 36.4478L90.0757 7.71394C90.2543 6.6382 90.6661 5.75491 91.3113 5.06408C91.9528 4.35766 92.7646 3.89108 93.7468 3.66433C94.7757 3.42678 95.7334 3.48485 96.6196 3.83855C97.5023 4.17665 98.2597 4.79 98.8918 5.67858L115.521 29.3772C116.411 30.6004 116.618 31.817 116.142 33.0271C115.662 34.2216 114.744 34.9754 113.388 35.2885C112.577 35.4757 111.756 35.4026 110.924 35.0693C110.107 34.7324 109.483 34.2359 109.053 33.58L98.0258 16.8641L96.0359 13.5795L95.8956 13.6119L95.5416 17.413L92.8883 37.2872C92.7661 38.0379 92.4309 38.7557 91.8829 39.4406C91.3469 40.1062 90.6814 40.5308 89.8863 40.7143ZM89.6554 33.5261L90.4014 27.6886L106.701 23.9257L110 28.8291L89.6554 33.5261Z" fill="white"/>
<path d="M122.747 39.375C121.572 39.2307 120.615 38.6861 119.877 37.741C119.139 36.796 118.842 35.7359 118.986 34.5607L122.121 9.0245C122.266 7.84933 122.81 6.89258 123.755 6.15424C124.7 5.41591 125.761 5.11889 126.936 5.26318L137.751 6.59107C140.688 6.9518 142.999 8.08987 144.682 10.0053C146.367 11.9048 147.054 14.125 146.742 16.6659C146.514 18.524 145.867 20.0485 144.802 21.2396C143.739 22.4148 142.416 23.2115 140.833 23.6297L140.818 23.7488C142.63 24.4871 144.013 25.6322 144.967 27.184C145.921 28.7358 146.276 30.5043 146.032 32.4894C145.703 35.1732 144.455 37.3252 142.289 38.9454C140.124 40.5655 137.501 41.1865 134.42 40.8082L122.747 39.375ZM127.022 33.7097L133.287 34.4789C134.557 34.6349 135.671 34.3606 136.628 33.656C137.603 32.9374 138.167 31.9509 138.321 30.6963C138.475 29.4417 138.147 28.3698 137.338 27.4805C136.544 26.5931 135.496 26.0695 134.194 25.9096L126.166 24.9239L126.809 19.6833L134.289 20.6017C135.544 20.7557 136.615 20.5004 137.503 19.8356C138.408 19.1569 138.93 18.2537 139.068 17.1262C139.209 15.9828 138.928 14.9891 138.225 14.1453C137.525 13.2855 136.548 12.7786 135.293 12.6245L129.695 11.9372L127.022 33.7097Z" fill="white"/>
<path d="M161.834 41.8333C160.798 42.1108 159.801 41.9723 158.84 41.4179C157.896 40.8594 157.282 40.0547 157.001 39.0038L150.143 13.4106C149.837 12.2669 149.983 11.1758 150.583 10.1372C151.183 9.09866 152.054 8.42614 153.198 8.1197L162.355 5.6661C165.693 4.77162 168.744 4.9978 171.506 6.34465C174.265 7.67604 176.081 9.97222 176.955 13.2332C177.766 16.2623 177.369 19.044 175.762 21.5782C174.151 24.097 171.622 25.8182 168.176 26.7416L157.86 29.5058L156.406 24.0812L165.818 21.5592C167.225 21.1824 168.278 20.4447 168.977 19.3463C169.673 18.2323 169.83 16.9644 169.449 15.5426C169.105 14.2598 168.371 13.3135 167.247 12.7037C166.119 12.0784 164.875 11.948 163.515 12.3124L158.368 13.6914L164.605 36.9663C164.886 38.0173 164.75 39.0228 164.195 39.983C163.657 40.9391 162.869 41.5559 161.834 41.8333ZM179.817 36.9899C179.168 37.1638 178.52 37.1553 177.872 36.9644C177.24 36.7693 176.692 36.4855 176.228 36.113L163.043 25.1106L171.447 22.5357L180.944 30.2527C182.351 31.3002 182.894 32.5874 182.575 34.1142C182.266 35.6213 181.347 36.5799 179.817 36.9899Z" fill="white"/>
<path d="M191.577 35.3302C190.474 35.3687 189.517 35.0179 188.707 34.2777C187.912 33.521 187.495 32.583 187.456 31.4636L186.506 4.26422C186.467 3.1609 186.826 2.20379 187.582 1.39291C188.339 0.582026 189.26 0.157599 190.348 0.119628C191.435 0.0816572 192.376 0.441032 193.171 1.19775C193.982 1.95391 194.407 2.88366 194.445 3.98698L195.395 31.1864C195.434 32.3057 195.084 33.2705 194.343 34.0809C193.603 34.8752 192.681 35.2916 191.577 35.3302Z" fill="white"/>
<path d="M207.375 38.5974C206.326 38.3745 205.5 37.7982 204.896 36.8683C204.308 35.9418 204.127 34.9464 204.353 33.8821L209.982 7.40174L217.682 9.03842L212.053 35.5188C211.827 36.5831 211.249 37.4171 210.319 38.021C209.405 38.6282 208.423 38.8203 207.375 38.5974ZM203.243 9.55176C202.257 9.34218 201.486 8.81824 200.928 7.97993C200.373 7.12596 200.199 6.21382 200.405 5.2435C200.611 4.27317 201.14 3.51855 201.99 2.97963C202.844 2.42506 203.764 2.25257 204.75 2.46214L224.399 6.63867C225.385 6.84825 226.156 7.38002 226.71 8.23398C227.268 9.07229 227.444 9.97661 227.238 10.9469C227.031 11.9173 226.501 12.6797 225.647 13.2343C224.797 13.7732 223.878 13.9379 222.892 13.7283L203.243 9.55176Z" fill="white"/>
<path d="M225.466 37.831C224.119 37.6417 223.153 36.9809 222.569 35.8486C221.987 34.7004 222.075 33.501 222.833 32.2502L237.469 7.09032C238.021 6.15003 238.722 5.473 239.572 5.05925C240.424 4.62966 241.349 4.485 242.347 4.62529C243.393 4.77226 244.266 5.16965 244.967 5.81747C245.67 6.44944 246.157 7.29347 246.429 8.34956L253.46 36.4335C253.853 37.8944 253.61 39.1044 252.732 40.0635C251.856 41.0068 250.729 41.3816 249.351 41.1878C248.527 41.072 247.786 40.7094 247.129 40.1C246.487 39.4928 246.083 38.8058 245.916 38.0391L241.612 18.4818L240.931 14.7023L240.788 14.6822L239.096 18.1039L229.496 35.7073C229.113 36.3644 228.543 36.9144 227.786 37.3573C227.047 37.7867 226.274 37.9445 225.466 37.831ZM227.826 31.0374L230.614 25.855L247.18 28.1831L248.503 33.9433L227.826 31.0374Z" fill="white"/>
<path d="M269.757 36.0371C267.38 36.3711 265.297 36.3166 263.505 35.8736C261.712 35.4147 260.175 34.7097 258.894 33.7587C257.611 32.7919 256.782 31.7774 256.407 30.7154C256.029 29.6374 255.981 28.7232 256.263 27.9726C256.543 27.2061 257.035 26.6201 257.737 26.2144C258.453 25.7906 259.157 25.627 259.849 25.7236C260.557 25.818 261.139 26.1078 261.595 26.5931C262.051 27.0784 262.634 27.6024 263.343 28.1652C264.068 28.7257 264.904 29.1575 265.852 29.4606C266.815 29.7615 267.907 29.8262 269.127 29.6547C270.727 29.4298 271.943 28.8873 272.776 28.0271C273.608 27.1668 273.939 26.1267 273.767 24.9067C273.602 23.7342 272.938 22.8582 271.774 22.2785C270.61 21.6989 268.578 21.1523 265.678 20.6389C262.249 20.0383 259.613 19.0435 257.77 17.6545C255.943 16.2633 254.859 14.3556 254.518 11.9314C254.119 9.09527 254.915 6.59221 256.904 4.42223C258.893 2.25225 261.686 0.914516 265.283 0.409039C267.406 0.110652 269.281 0.113778 270.907 0.418416C272.547 0.704984 273.897 1.22622 274.956 1.98212C276.016 2.73802 276.697 3.56321 277.001 4.45768C277.304 5.35216 277.312 6.15885 277.026 6.87775C276.755 7.59442 276.305 8.1342 275.678 8.49708C275.053 8.8758 274.439 9.0509 273.837 9.02238C273.235 8.99386 272.736 8.82981 272.338 8.53022C271.956 8.22841 271.456 7.88673 270.837 7.50518C270.231 7.10556 269.538 6.83133 268.758 6.68248C267.994 6.5314 267.136 6.52267 266.185 6.65627C264.775 6.85445 263.691 7.30567 262.934 8.00993C262.193 8.71196 261.89 9.54623 262.026 10.5127C262.152 11.4159 262.618 12.1421 263.422 12.6915C264.24 13.2229 266.294 13.7502 269.582 14.2736C273.331 14.8455 276.138 15.9131 278.006 17.4764C279.874 19.0397 280.984 21.073 281.336 23.5764C281.788 26.7928 280.937 29.5379 278.785 31.8116C276.648 34.083 273.639 35.4916 269.757 36.0371Z" fill="white"/>
</svg>
